# xmcd CD database file
#
# Track frame offsets:
#	150
#	17737
#	32415
#	45009
#	62718
#	77209
#	100863
#	121028
#	134951
#	152307
#	165850
#	180739
#	191541
#	208150
#	222842
#	241609
#	256612
#	276274
#	293075
#	304152
#	316544
#
# Disc length: 4417 seconds
#
# Revision: 0
# Processed by: cddbd v1.5.2PL0 Copyright (c) Steve Scherf et al.
# Submitted via: Feurio! 1.68 - http://www.feurio.com
#
DISCID=0b113f15
DTITLE=Sandra Ingerman - Die Seele schützen
DYEAR=1900
DGENRE=
TTITLE0=Einführung
TTITLE1=Einführung
TTITLE2=Die auswirkung unserer Energie auf andere
TTITLE3=Unsere schöpferischen Kräfte aktivieren
TTITLE4=Unsere schöpferischen Kräfte aktivieren
TTITLE5=Unsere schöpferischen Kräfte aktivieren
TTITLE6=Energien positiv umwandeln
TTITLE7=Energien positiv umwandeln
TTITLE8=Energien positiv umwandeln
TTITLE9=Praktische Techniken der Energiearbeit
TTITLE10=Praktische Techniken der Energiearbeit
TTITLE11=Projektionen erkennen und überwinden
TTITLE12=Projektionen erkennen und überwinden
TTITLE13=Projektionen erkennen und überwinden
TTITLE14=15 neu
TTITLE15=Die Kraft der Innerlichkeit und der Konzentration
TTITLE16=Die Kraft der Innerlichkeit und der Konzentration
TTITLE17=Sich selbst schützen lernen
TTITLE18=Sich selbst schützen lernen
TTITLE19=Sich selbst schützen lernen
TTITLE20=Der Weg zu einem neuen Bewusstsein
EXTD=
EXTT0=
EXTT1=
EXTT2=
EXTT3=
EXTT4=
EXTT5=
EXTT6=
EXTT7=
EXTT8=
EXTT9=
EXTT10=
EXTT11=
EXTT12=
EXTT13=
EXTT14=
EXTT15=
EXTT16=
EXTT17=
EXTT18=
EXTT19=
EXTT20=
PLAYORDER=
